<svg id="ic_cup" xmlns="http://www.w3.org/2000/svg" width="23.164" height="23.164" viewBox="0 0 23.164 23.164">
  <g id="Groupe_51" data-name="Groupe 51">
    <path id="Tracé_62" data-name="Tracé 62" d="M22.005,1.158H18.531V0H4.633V1.158H1.158A1.094,1.094,0,0,0,0,2.316V5.1a5.254,5.254,0,0,0,4.633,5.212v.116a6.966,6.966,0,0,0,5.443,6.833l-.811,2.432H6.6a1.112,1.112,0,0,0-1.042.811l-.927,2.664h13.9L17.6,20.5a1.112,1.112,0,0,0-1.042-.811H13.9l-.811-2.432a6.966,6.966,0,0,0,5.443-6.833v-.116A5.254,5.254,0,0,0,23.164,5.1V2.316A1.094,1.094,0,0,0,22.005,1.158ZM4.633,7.991A3.093,3.093,0,0,1,2.316,5.1V3.475H4.633Zm9.265,3.59-2.316-1.274L9.265,11.582l.579-2.316L8.107,6.949h2.432l1.042-2.316,1.042,2.316h2.432L13.319,9.265ZM20.847,5.1a2.988,2.988,0,0,1-2.316,2.9V3.475h2.316Z" fill="#fff"/>
  </g>
</svg>
