<svg id="ic_fight" xmlns="http://www.w3.org/2000/svg" width="23.164" height="23.164" viewBox="0 0 23.164 23.164">
  <path id="Tracé_56" data-name="Tracé 56" d="M354.64,351.121l-3.174-3.174-3.519,3.519,3.174,3.174a2.488,2.488,0,1,0,3.519-3.519Z" transform="translate(-332.205 -332.205)" fill="#fff"/>
  <path id="Tracé_57" data-name="Tracé 57" d="M84.779,19.619a.679.679,0,0,0,.48-1.158l-.8-.8L97.713,6.83a.679.679,0,0,0,.249-.525V.679A.679.679,0,0,0,97.283,0H91.657a.679.679,0,0,0-.525.249L80.3,13.5l-.8-.8a.679.679,0,0,0-.96.96L84.3,19.42A.676.676,0,0,0,84.779,19.619ZM93.737,3.265a.679.679,0,0,1,.96.96L82.86,16.061l-.96-.96Z" transform="translate(-74.798 0)" fill="#fff"/>
  <path id="Tracé_58" data-name="Tracé 58" d="M4.248,354.64l3.174-3.174L3.9,347.947.729,351.121a2.488,2.488,0,1,0,3.519,3.519Z" transform="translate(0 -332.205)" fill="#fff"/>
  <path id="Tracé_59" data-name="Tracé 59" d="M.249,6.83l5.365,4.386L7.7,8.662,3.265,4.225a.679.679,0,1,1,.96-.96L8.566,7.606l2.14-2.617L6.83.249A.679.679,0,0,0,6.3,0H.679A.679.679,0,0,0,0,.679V6.3a.679.679,0,0,0,.249.525Z" transform="translate(0 0)" fill="#fff"/>
  <path id="Tracé_60" data-name="Tracé 60" d="M282.336,276.577l-.8.8-.306-.374-1.8,1.472.5.5-.96.96-.6-.6-1.848,1.511.846.692-.8.8a.679.679,0,0,0,.96.96l5.758-5.758a.679.679,0,0,0-.96-.96Z" transform="translate(-263.875 -263.875)" fill="#fff"/>
</svg>
